Coordinates
version=1
nRows=12
nColumns=24
inDegrees=yes

Units are S.I. units (second, meters, Newtons, ...)
Angles are in degrees.

endheader
time	pelvis_tilt	pelvis_list	pelvis_rotation	pelvis_tx	pelvis_ty	pelvis_tz	hip_flexion_r	hip_adduction_r	hip_rotation_r	knee_angle_r	ankle_angle_r	subtalar_angle_r	mtp_angle_r	hip_flexion_l	hip_adduction_l	hip_rotation_l	knee_angle_l	ankle_angle_l	subtalar_angle_l	mtp_angle_l	lumbar_extension	lumbar_bending	lumbar_rotation
      3.72000000	     13.83730436	      1.37185456	     -2.50021930	      0.49767734	      0.94710685	      0.01245186	    -20.18493777	     -6.48622255	     -4.28993574	    -33.14520723	     21.85878961	     22.99190628	     36.37249830	      0.83103976	      2.15181546	     -6.48380738	    -13.56534965	      4.86290627	     10.36580182	     23.67291149	    -24.47570085	     -0.95608123	      4.09339757
      3.72500000	     13.87928714	      1.46560880	     -2.53071125	      0.50231382	      0.94787378	      0.01163080	    -19.58166918	     -6.82229539	     -4.37631203	    -34.72433981	     20.58735907	     23.24662357	     39.05728627	      0.47201666	      2.29206495	     -6.56082961	    -13.59416074	      5.26341117	     10.75970579	     21.73552623	    -24.49309380	     -1.14662176	      4.07702821
      3.73000000	     13.96863008	      1.56535620	     -2.52302720	      0.50693563	      0.94870760	      0.01082283	    -19.04093378	     -7.14626705	     -4.47528312	    -36.26871703	     19.45687379	     23.61228492	     39.09170298	      0.03427100	      2.43171864	     -6.67074398	    -13.54787815	      5.49363341	     11.17520860	     21.69531015	    -24.56450466	     -1.33592645	      3.99094822
      3.73500000	     14.01494271	      1.66284058	     -2.53494837	      0.51152045	      0.94945219	      0.01005937	    -18.41538809	     -7.47453969	     -4.57058960	    -37.83792290	     18.41554818	     23.87071159	     39.23481817	     -0.38525419	      2.56666789	     -6.84391747	    -13.43973674	      5.74877670	     11.59235279	     21.58219818	    -24.58859352	     -1.52614602	      3.95150355
      3.74000000	     14.06324840	      1.76233437	     -2.54179273	      0.51605169	      0.95023658	      0.00936908	    -17.79255115	     -7.77250469	     -4.59283426	    -39.34233652	     17.35305254	     23.92518326	     39.33961320	     -0.82736743	      2.69884155	     -7.05034477	    -13.28036675	      5.92580723	     12.01883454	     21.48241656	    -24.62197064	     -1.72313750	      3.84398907
      3.74500000	     14.09865297	      1.79753203	     -2.56981851	      0.52056802	      0.95100453	      0.00883449	    -17.14412130	     -7.98364992	     -4.57565295	    -40.77463215	     16.17208087	     23.59930709	     42.39868923	     -1.26848702	      2.74043800	     -7.37938046	    -13.13890749	      6.47072917	     12.81558223	     18.05145292	    -24.64013757	     -1.86895741	      3.83127756
      3.75000000	     14.15113494	      1.89917730	     -2.57136383	      0.52505647	      0.95176347	      0.00822441	    -16.51331300	     -8.26709466	     -4.61869101	    -42.20595470	     15.31640362	     23.43138670	     42.29742601	     -1.76597543	      2.87398274	     -7.63421735	    -12.86460592	      6.59221002	     13.29065141	     18.02025814	    -24.67873275	     -2.06975127	      3.71184688
      3.75500000	     14.18131865	      1.93223541	     -2.62660440	      0.52951433	      0.95249228	      0.00781297	    -15.83925362	     -8.45893196	     -4.54730376	    -43.58506202	     14.58947190	     23.06873009	     42.07631131	     -2.25752930	      2.92029406	     -8.03716971	    -12.57266438	      6.84120686	     13.93266402	     17.86507965	    -24.69289941	     -2.22582000	      3.69915863
      3.76000000	     14.23203664	      2.02035034	     -2.63228325	      0.53394435	      0.95322472	      0.00728773	    -15.19727077	     -8.70968825	     -4.59920303	    -44.91745946	     13.96217281	     22.60794079	     41.91712324	     -2.79983552	      3.04556129	     -8.32158233	    -12.18955909	      6.88254258	     14.39725562	     17.78040156	    -24.73413359	     -2.41464226	      3.58907321
      3.76500000	     14.28531783	      2.00370444	     -2.69597287	      0.53834324	      0.95397230	      0.00699332	    -14.54999254	     -8.81978552	     -4.51206603	    -46.16416773	     13.45071738	     21.94105480	     41.43438509	     -3.34801275	      3.04210800	     -8.78888503	    -11.83245015	      7.12916806	     15.09436915	     17.46080166	    -24.77925693	     -2.52435519	      3.60958697
      3.77000000	     14.32184024	      2.09170882	     -2.69668943	      0.54272537	      0.95465615	      0.00651933	    -13.89221987	     -9.05540616	     -4.59528073	    -47.38137075	     13.10484988	     21.28320882	     41.20977544	     -3.91350556	      3.17942555	     -9.05413105	    -11.35218667	      7.10416183	     15.49914430	     17.34010877	    -24.80948830	     -2.71046482	      3.46232032
      3.77500000	     14.36165209	      2.08005621	     -2.75593006	      0.54710813	      0.95534462	      0.00624692	    -13.23183214	     -9.16846281	     -4.56152225	    -48.54449424	     13.13879006	     20.73616379	     36.91936022	     -4.48629651	      3.19508036	     -9.50350995	    -10.92018742	      7.49058290	     16.29244769	     14.14985263	    -24.83961265	     -2.81796283	      3.45836791
